<?xml version="1.0" encoding="UTF-8"?><svg id="a" xmlns="http://www.w3.org/2000/svg" viewBox="0 0 310.2 433.43"><defs><style>.yellow01{fill:#ffd733;}.yellow02{fill:#ffce45;}.opacity{opacity:.7;}.yellow03{fill:#ffe266;}.fff{fill:#fff;}.yellow04{fill:#fcab28;}.hhh{fill:#fe5629;}.iii{fill:#cd3414;}</style></defs><polygon class="iii" points="131.5 273.28 178.7 431.75 217.48 376.11 281.54 399.72 230.96 246.3 131.5 273.28"/><g class="opacity"><rect class="yellow02" x="168.75" y="315.86" width="5.2" height="108.13" transform="translate(-100.5 66.11) rotate(-16.97)"/></g><g class="opacity"><rect class="yellow02" x="244.38" y="268.61" width="5.2" height="129.03" transform="translate(-88.69 89.62) rotate(-17.49)"/></g><polygon class="hhh" points="74.18 256.42 23.6 403.09 92.72 379.49 128.13 433.43 187.13 276.65 74.18 256.42"/><g class="opacity"><rect class="yellow02" x="-10.49" y="321.25" width="152.47" height="5.2" transform="translate(-262.55 286.11) rotate(-71.96)"/></g><g class="opacity"><rect class="yellow02" x="65.36" y="342.32" width="162.62" height="5.2" transform="translate(-227.38 368.85) rotate(-70.62)"/></g><path class="yellow04" d="M0,153.58c0-7.09,17.28-12.87,18.25-19.69,1-6.99-13.95-17.38-12-24.02,1.98-6.75,20.18-7.42,23.07-13.73,2.92-6.38-8.47-20.58-4.71-26.43,3.79-5.88,21.44-1.39,26.01-6.66,4.58-5.28-2.37-22.11,2.91-26.69,5.27-4.57,20.95,4.69,26.83,.9,5.85-3.77,3.91-21.88,10.29-24.8,6.31-2.89,18.74,10.42,25.49,8.44,6.64-1.95,9.91-19.87,16.89-20.86,6.82-.97,14.98,15.3,22.07,15.3S170.35-.93,177.17,.04c6.99,1,10.26,18.92,16.89,20.86,6.75,1.98,19.18-11.32,25.49-8.44,6.38,2.92,4.44,21.03,10.29,24.8,5.88,3.79,21.57-5.47,26.83-.9,5.28,4.58-1.67,21.41,2.91,26.69,4.57,5.27,22.22,.78,26.01,6.66,3.77,5.85-7.62,20.05-4.71,26.43,2.89,6.31,21.09,6.98,23.07,13.73,1.95,6.64-13,17.03-12,24.02,.97,6.82,18.25,12.6,18.25,19.69s-17.28,12.87-18.25,19.69c-1,6.99,13.95,17.38,12,24.02-1.98,6.75-20.18,7.42-23.07,13.73-2.92,6.38,8.47,20.58,4.71,26.43-3.79,5.88-21.44,1.39-26.01,6.66-4.58,5.28,2.37,22.11-2.91,26.69-5.27,4.57-20.95-4.69-26.83-.9-5.85,3.77-3.91,21.88-10.29,24.8-6.31,2.89-18.74-10.42-25.49-8.44-6.64,1.95-9.91,19.87-16.89,20.86-6.82,.97-14.98-15.3-22.07-15.3s-15.25,16.27-22.07,15.3c-6.99-1-10.26-18.92-16.89-20.86-6.75-1.98-19.18,11.32-25.49,8.44-6.38-2.92-4.44-21.03-10.29-24.8-5.88-3.79-21.57,5.47-26.83,.9-5.28-4.58,1.67-21.41-2.91-26.69-4.57-5.27-22.22-.78-26.01-6.66-3.77-5.85,7.62-20.05,4.71-26.43-2.89-6.31-21.09-6.98-23.07-13.73-1.95-6.64,13-17.03,12-24.02-.97-6.82-18.25-12.6-18.25-19.69Z"/><circle class="yellow03" cx="155.1" cy="153.58" r="124.75"/><path class="yellow04" d="M155.1,280.86c-34,0-65.96-13.24-90-37.28-24.04-24.04-37.28-56-37.28-90s13.24-65.96,37.28-90c24.04-24.04,56-37.28,90-37.28s65.96,13.24,90,37.28c24.04,24.04,37.28,56,37.28,90s-13.24,65.96-37.28,90c-24.04,24.04-56,37.28-90,37.28Zm0-249.51c-67.39,0-122.22,54.83-122.22,122.22s54.83,122.22,122.22,122.22,122.22-54.83,122.22-122.22S222.49,31.36,155.1,31.36Z"/><circle class="yellow01" cx="155.1" cy="153.58" r="89.35"/><path class="yellow03" d="M229.28,118.18c0-5.69-.55-11.25-1.57-16.64-16.22-22.58-42.68-37.31-72.61-37.31-49.35,0-89.35,40-89.35,89.35,0,5.69,.55,11.25,1.57,16.64,16.22,22.58,42.68,37.31,72.61,37.31,49.35,0,89.35-40,89.35-89.35Z"/><path class="yellow04" d="M155.1,245.53c-50.7,0-91.95-41.25-91.95-91.95S104.4,61.63,155.1,61.63s91.95,41.25,91.95,91.95-41.25,91.95-91.95,91.95Zm0-178.7c-47.83,0-86.75,38.91-86.75,86.75s38.91,86.75,86.75,86.75,86.75-38.91,86.75-86.75-38.91-86.75-86.75-86.75Z"/><polygon class="fff" points="93.36 79.26 101.23 59.38 108.6 79.54 122.4 87.41 108.33 94.78 100.46 120.06 93.09 94.5 79.29 86.63 93.36 79.26"/></svg>