<svg viewBox="0 0 78 78" fill="none" xmlns="http://www.w3.org/2000/svg">
<path d="M78 5.2C78 2.6 75.4 0 72.8 0H5.2C2.6 0 0 2.6 0 5.2V54.6H78V5.2Z" fill="#212528"/>
<path d="M0 54.5996V59.7996C0 62.3996 2.6 64.9996 5.2 64.9996H72.8C75.4 64.9996 78 62.3996 78 59.7996V54.5996H0Z" fill="#DDDDDD"/>
<path d="M28.4 67.6C28.4 72.8 23.2 72.8 18 72.8H59.6C54.4 72.8 49.2 72.8 49.2 67.6V65H28.4V67.6Z" fill="#BFBEBE"/>
<path d="M5 5.19971H72.6V49.3997H5V5.19971Z" fill="#3E4347"/>
<path d="M38.8 60.9706C39.518 60.9706 40.1 60.3886 40.1 59.6706C40.1 58.9526 39.518 58.3706 38.8 58.3706C38.082 58.3706 37.5 58.9526 37.5 59.6706C37.5 60.3886 38.082 60.9706 38.8 60.9706Z" fill="#94989B"/>
<path d="M18 72.8008H59.6V78.0008H18V72.8008Z" fill="#94989B"/>
</svg>
