<?xml version="1.0" encoding="UTF-8"?><svg id="a" xmlns="http://www.w3.org/2000/svg" viewBox="0 0 210.65 216.61"><defs><style>.b{fill:#6897f4;}.c{fill:#c7f5ff;}.d{fill:#e1faff;}.e{fill:#76cefb;}.f{fill:#464b52;}.g{fill:#292b2f;}</style></defs><path class="g" d="M5.67,210.94l.69,.69c6.64,6.64,17.42,6.64,24.06,0l55.53-55.53c-5.31-3.02-10.26-6.61-14.76-10.68L5.67,210.94Z"/><path class="f" d="M59.21,131.97L4.98,186.19c-6.64,6.64-6.64,17.42,0,24.06l.69,.69,65.53-65.53c-4.46-4.03-8.49-8.54-11.99-13.45Z"/><path class="b" d="M189.1,27.51l-9.41,9.41c10.99,12.39,17.68,28.7,17.68,46.57,0,38.78-31.44,70.21-70.21,70.21-11.42,0-22.19-2.74-31.71-7.58-.62,.93-1.34,1.82-2.16,2.64l-7.33,7.33c12.16,6.92,26.21,10.88,41.2,10.88,46.11,0,83.49-37.38,83.49-83.49,0-21.54-8.16-41.17-21.55-55.98Z"/><path class="e" d="M68.77,122.49c-7.47-11.16-11.83-24.57-11.83-39,0-38.78,31.44-70.21,70.21-70.21,20.91,0,39.67,9.15,52.53,23.65l9.41-9.41C173.82,10.62,151.73,0,127.16,0,81.05,0,43.67,37.38,43.67,83.49c0,18.08,5.77,34.81,15.54,48.48l8.64-8.64c.3-.3,.61-.57,.93-.84Z"/><path class="b" d="M95.45,146.13c-5.39-2.73-10.38-6.14-14.85-10.11l-9.39,9.39c4.5,4.07,9.45,7.66,14.76,10.68l7.33-7.33c.82-.82,1.54-1.71,2.16-2.64Z"/><path class="e" d="M71.2,145.41l9.39-9.39c-4.49-3.98-8.47-8.53-11.82-13.53-.31,.27-.63,.54-.93,.84l-8.64,8.64c3.51,4.91,7.53,9.41,11.99,13.45Z"/><path class="c" d="M93.28,124.71c5.82,5.82,6.54,14.81,2.16,21.42,9.53,4.83,20.3,7.58,31.71,7.58,38.78,0,70.21-31.44,70.21-70.21,0-17.87-6.69-34.17-17.68-46.57L92.6,124.02l.69,.69Z"/><path class="d" d="M127.16,13.28c-38.78,0-70.21,31.44-70.21,70.21,0,14.43,4.36,27.84,11.83,39,6.68-5.78,16.79-5.51,23.13,.84l.69,.69L179.69,36.92c-12.86-14.5-31.62-23.65-52.53-23.65Z"/><path class="c" d="M93.28,124.71l-.69-.69-12,12c4.48,3.97,9.47,7.37,14.85,10.11,4.38-6.61,3.66-15.6-2.16-21.42Z"/><path class="d" d="M91.91,123.33c-6.35-6.35-16.45-6.62-23.13-.84,3.35,5.01,7.33,9.55,11.82,13.53l12-12-.69-.69Z"/></svg>